# xmcd
#
# Track frame offsets: 
#        150
#        13872
#        32935
#        48122
#        62442
#        74757
#        92527
#        105140
#        118490
#        131357
#
# Disc length: 2023 seconds
#
# Revision: 2
# Processed by: cddbd v1.5.2PL0 Copyright (c) Steve Scherf et al.
# Submitted via: ExactAudioCopy v1.1
#
DISCID=8207e50a
DTITLE=Kate MacKenzie - Let Them Talk
DYEAR=1994
DGENRE=Bluegrass
TTITLE0=Hearbreak Hill
TTITLE1=Down On The Riverbed
TTITLE2=Waitin' Out The Storm
TTITLE3=I Get The Blues When It Rains
TTITLE4=Forgive And Forget
TTITLE5=One Wrong Turn
TTITLE6=He Knows How Much We Can Bear
TTITLE7=Pan American Boogie
TTITLE8=Let Them Talk
TTITLE9=A Woman Like Me
EXTD=(c) 1994 Red House Records\nSpecial Guests:\nEmmylou Harris\nAlis
EXTD=on Krauss\nBela Fleck\nThe Fairfield Four\nRuss Barenberg\nRon Bl
EXTD=ock\nSam Bush\nStuart Duncan\nViktor Krauss\nAlan O'Bryant\nAdam 
EXTD=Steffy\nDan Tyminski
EXTT0=
EXTT1=
EXTT2=
EXTT3=
EXTT4=
EXTT5=
EXTT6=
EXTT7=
EXTT8=
EXTT9=
PLAYORDER=
